# xmcd
#
# Track frame offsets: 
#        150
#        26199
#        44220
#        73543
#        92419
#        125971
#        156478
#        186870
#        210915
#        233033
#        254663
#        273565
#        305627
#        323302
#        352099
#
# Disc length: 4798 seconds
#
# Revision: 0
# Processed by: cddbd v1.5.2PL0 Copyright (c) Steve Scherf et al.
# Submitted via: ExactAudioCopy v0.95a5
#
DISCID=e712bc0f
DTITLE=Various Artist - Blues Instrumental - 3  CD2
DYEAR=2009
DGENRE=Blues
TTITLE0=PETER GARSTENAUER - Down for You
TTITLE1=Domingo - GREGG ROLIE
TTITLE2=DUKE ROBILLARD - Duke's Mood
TTITLE3=TINSLEY ELLIS - The Hunk
TTITLE4=LUCKY PETERSON - Beyond Cool
TTITLE5=JAN AKKERMAN - Shame On You
TTITLE6=CRAIG ERICKSON - Street of Dreams
TTITLE7=Stratus - WES JEANS
TTITLE8=WALTER TROUT - Through the Eyes of Love
TTITLE9=VARGAS BLUES BAND - Del Sur
TTITLE10=SUNSET HEIGHTS - Sally Jo
TTITLE11=PETER GARSTENAUER - Midnight Flow
TTITLE12=STEVIE RAY VAUGHAN - Chitlins Con Carne
TTITLE13=GREGOR HILDEN - Sleep Walk
TTITLE14=BOBBY MANRIQUES - Smokehouse 
EXTD=
EXTT0=
EXTT1=
EXTT2=
EXTT3=
EXTT4=
EXTT5=
EXTT6=
EXTT7=
EXTT8=
EXTT9=
EXTT10=
EXTT11=
EXTT12=
EXTT13=
EXTT14=
PLAYORDER=
